<?xml version="1.0" standalone="no"?>
<!DOCTYPE svg PUBLIC "-//W3C//DTD SVG 20010904//EN"
 "http://www.w3.org/TR/2001/REC-SVG-20010904/DTD/svg10.dtd">
<svg version="1.0" xmlns="http://www.w3.org/2000/svg"
 width="524.000000pt" height="524.000000pt" viewBox="0 0 524.000000 524.000000"
 preserveAspectRatio="xMidYMid meet">
<metadata>
Created by potrace 1.11, written by Peter Selinger 2001-2013
</metadata>
<g transform="translate(0.000000,524.000000) scale(0.100000,-0.100000)"
fill="#000000" stroke="none">
<path d="M3045 3618 c-1073 -1090 -1349 -1367 -1374 -1378 -23 -9 -34 -9 -51
0 -26 14 -355 295 -445 380 -68 65 -111 90 -153 90 -27 0 -154 -39 -186 -57
-12 -7 58 -103 345 -468 198 -253 378 -479 400 -502 22 -23 56 -47 75 -53 31
-11 41 -9 81 12 41 21 117 114 660 818 812 1051 829 1073 842 1123 7 23 11 86
9 140 l-3 98 -200 -203z"/>
<path d="M4324 3737 c-73 -76 -1159 -1180 -1375 -1398 -53 -53 -105 -100 -116
-103 -32 -10 -62 7 -156 88 -49 42 -92 76 -96 76 -7 0 -62 -70 -175 -220 l-28
-38 180 -230 c100 -126 195 -241 211 -255 67 -56 131 -41 205 47 44 52 1103
1424 1303 1687 60 80 115 161 122 180 14 45 25 235 13 243 -5 3 -45 -32 -88
-77z"/>
</g>
</svg>
